<svg xmlns="http://www.w3.org/2000/svg" xmlns:xlink="http://www.w3.org/1999/xlink" width="1920" height="579.929" viewBox="0 0 1920 579.929">
  <defs>
    <linearGradient id="linear-gradient" y1="1" x2="1" y2="1" gradientUnits="objectBoundingBox">
      <stop offset="0" stop-color="#20a9af"/>
      <stop offset="0.766" stop-color="#20a9af"/>
      <stop offset="1" stop-color="#20a9af"/>
    </linearGradient>
  </defs>
  <g id="intersection-1" transform="translate(0 -856.194)">
    <path id="wave" d="M0,204.125l32,3.756c32,4.04,96,11.128,160,11.34,64-.213,128-7.3,192-7.513,64,.213,128,7.3,192-18.924S704,105.607,768,83.139c64-22.893,128-7.3,192,7.584s128,30.477,192,34.021a557.33,557.33,0,0,0,192-22.681c64-19.137,128-48.905,192-56.7s128,7.8,192,3.756c64-3.756,128-26.437,160-37.777L1920,0V226.806H0Z" transform="translate(0 856.194)" fill="url(#linear-gradient)"/>
    <path id="wave_2_" data-name="wave (2)" d="M0,255.6l18.8-6.085c18.8-6.544,55.867-18.026,94.533-55.111,37.2-36.4,74.667-98.4,112-134.793,38.133-37.085,76-48.567,113.333-48.911,37.867.344,76,11.826,113.333,36.741,37.467,24.456,74.667,61.2,113.333,97.937,37.067,36.741,74.667,73.482,112,73.482,38,0,76-36.741,113.333-30.656,37.6,6.544,74.667,54.767,113.333,36.741,37.2-18.715,74.667-103.678,112-122.393,38.133-18.026,76,30.2,113.333,42.826,37.733,12.63,76-12.63,113.333-42.826,37.333-30.656,74.667-67.4,112-30.656,38.267,36.741,76,146.963,113.333,165.334,37.867,18.37,76-55.111,113.333-67.4,37.467-11.826,74.667,36.4,113.333,36.741,37.067-.344,74.667-48.567,112-48.911,38,.344,76,48.567,94.667,73.482L1920,255.6V365.823H0Z" transform="translate(1920 1446.823) rotate(180)" fill="#20a9af"/>
  </g>
</svg>
