<svg id="think-logo" xmlns="http://www.w3.org/2000/svg" width="272" height="73.179" viewBox="0 0 272 73.179">
  <g id="Group_9" data-name="Group 9" transform="translate(0 0)">
    <g id="Group_3" data-name="Group 3">
      <path id="Path_1" data-name="Path 1" d="M55.456,3.144V28.585a2.86,2.86,0,0,1-3.144,3.144H42.878a2.86,2.86,0,0,0-3.144,3.144V69.749a2.86,2.86,0,0,1-3.144,3.144H18.866a2.86,2.86,0,0,1-3.144-3.144V34.874a2.86,2.86,0,0,0-3.144-3.144H3.144A2.86,2.86,0,0,1,0,28.585V3.144A2.86,2.86,0,0,1,3.144,0H52.311A2.86,2.86,0,0,1,55.456,3.144Z" transform="translate(0 0)" fill="#3e3e3e"/>
    </g>
    <g id="Group_4" data-name="Group 4" transform="translate(61.745 0)">
      <path id="Path_2" data-name="Path 2" d="M77.342,3.144v66.6A2.86,2.86,0,0,1,74.2,72.893H56.474a2.86,2.86,0,0,1-3.144-3.144V58.314a2.86,2.86,0,0,0-3.144-3.144H48.756a2.86,2.86,0,0,0-3.144,3.144V69.749c0,2-2.287,3.144-4.288,3.144H24.744A2.86,2.86,0,0,1,21.6,69.749V3.144A2.86,2.86,0,0,1,24.744,0H42.753A2.86,2.86,0,0,1,45.9,3.144V14.579c0,2,0,3.144,2,3.144h4c2,0,1.715-1.143,1.715-3.144V3.144A2.86,2.86,0,0,1,56.76,0H74.2C76.484,0,77.342,1.143,77.342,3.144Z" transform="translate(-21.6 0)" fill="#3e3e3e"/>
    </g>
    <g id="Group_5" data-name="Group 5" transform="translate(154.361 0)">
      <path id="Path_3" data-name="Path 3" d="M109.456,3.144v66.6a2.86,2.86,0,0,1-3.144,3.144H88.017A3.678,3.678,0,0,1,84.3,70.606L79.155,56.027c-.286-.858-1.143-.858-1.143.286V69.463a2.86,2.86,0,0,1-3.144,3.144l-17.723.286A2.86,2.86,0,0,1,54,69.749V3.144A2.86,2.86,0,0,1,57.144,0H75.439a4.12,4.12,0,0,1,3.716,2.287l4.86,14.579c.572,1.143,1.429.858,1.429-.286V3.144A2.86,2.86,0,0,1,88.588,0H106.6C108.6,0,109.456,1.143,109.456,3.144Z" transform="translate(-54)" fill="#3e3e3e"/>
    </g>
    <g id="Group_6" data-name="Group 6" transform="translate(216.964 0)">
      <path id="Path_4" data-name="Path 4" d="M127.926,72.893H109.631a3.135,3.135,0,0,1-3.43-2.287c-1.429-3.716-3.716-10.862-5.145-14.864,0-.286-.286-.286-.286-.572a.548.548,0,0,0-.858.286V69.463a2.86,2.86,0,0,1-3.144,3.144H79.044A2.86,2.86,0,0,1,75.9,69.463V3.144A2.86,2.86,0,0,1,79.044,0H97.053A2.86,2.86,0,0,1,100.2,3.144V16.58c0,1.143.858,1.143,1.143.286,0,0,3.43-11.434,5.145-15.15C106.772.286,108.2,0,109.917,0H127.64c2.859,0,4,1.429,2.859,3.716,0,0-8.861,23.154-12.006,30.872l-.286.572v.286L130.5,69.177C131.356,71.178,130.5,72.893,127.926,72.893Z" transform="translate(-75.9)" fill="#3e3e3e"/>
    </g>
    <g id="Group_7" data-name="Group 7" transform="translate(124.347 0)">
      <path id="Path_5" data-name="Path 5" d="M67.226,2.287V47.166c0,1.429-1.143,2.287-3.144,2.287H46.644c-2,0-3.144-.858-3.144-2.287V2.287C43.5.858,44.643,0,46.644,0H64.082C66.083,0,67.226.858,67.226,2.287Z" transform="translate(-43.5 0)" fill="#3e3e3e"/>
    </g>
    <g id="Group_8" data-name="Group 8" transform="translate(124.347 55.456)">
      <path id="Path_6" data-name="Path 6" d="M67.226,21.687V34.836c0,1.429-1.143,2.287-3.144,2.287H46.644c-2,0-3.144-.858-3.144-2.287V21.687c0-1.429,1.143-2.287,3.144-2.287H64.082C66.083,19.4,67.226,19.972,67.226,21.687Z" transform="translate(-43.5 -19.4)" fill="#3e3e3e"/>
    </g>
  </g>
</svg>
