<svg xmlns="http://www.w3.org/2000/svg" xmlns:xlink="http://www.w3.org/1999/xlink" width="1920" height="1704" viewBox="0 0 1920 1704">
  <defs>
    <clipPath id="clip-path">
      <rect id="Rectangle_147" data-name="Rectangle 147" width="1920" height="1704" transform="translate(0 2229)" fill="none" stroke="#707070" stroke-width="30"/>
    </clipPath>
  </defs>
  <g id="Mask_Group_2" data-name="Mask Group 2" transform="translate(0 -2229)" clip-path="url(#clip-path)">
    <g id="intersection2">
      <g id="Group_122" data-name="Group 122">
        <path id="wave_3_" data-name="wave (3)" d="M0,492.387,16.876,460.27c17.038-32.117,51.277-96.35,85.353-139.1,33.265-43.558,66.53-63.631,100.606-53.594,34.239,10.036,68.153,54.2,102.229,21.478,33.59-31.514,68.153-139.908,100.606-128.466,34.563,10.639,68.153,139.1,102.229,117.627,33.914-20.675,68.153-193.3,102.229-224.816,33.265-32.719,66.53,75.675,100.606,75.072,34.239.6,68.153-107.791,102.229-117.828C846.553.6,881.116,84.908,913.57,85.51,948.133,84.908,981.723.6,1015.8,0c34.076.6,68.153,84.908,102.229,181.86,33.427,95.748,66.53,204.141,100.606,203.539,34.4.6,68.153-107.791,102.229-128.466,33.752-21.478,68.153,42.755,102.229,10.639,33.1-32.117,66.53-160.583,100.606-192.7s68.153,32.117,102.229,96.35c33.427,64.233,66.53,128.466,100.606,139.1,34.4,11.442,68.153-32.719,102.229-21.277,33.752,10.639,68.153,74.872,102.229,64.233,33.1-11.442,66.53-95.748,100.606-160.583,34.076-63.631,68.153-107.791,102.229-128.466,33.59-21.478,68.153-21.478,100.606,0,34.563,20.675,68.153,64.835,86,85.51l16.227,21.478v385.4H0Z" transform="matrix(0.966, -0.259, 0.259, 0.966, -319.289, 2769.273)" fill="none" stroke="#20a9af" stroke-width="8"/>
        <g id="Group_121" data-name="Group 121">
          <path id="wave_1_" data-name="wave (1)" d="M0,591.97l14.929-93.453C30.02,405.064,60.039,218.158,89.247,218.158c30.506,0,60.039,186.906,90.87,186.906,29.533,0,60.039-186.906,89.247-202.384,30.182-16.646,60.039,141.056,90.87,217.862,29.208,77.975,58.417,77.975,89.247,62.5,29.857-16.646,60.039-45.85,89.248-140.179C569.237,250.282,598.77,92.58,629.6,62.5c29.533-31.248,60.039,62.2,89.248,93.453,30.02,30.08,60.039.876,89.247,62.2,30.669,61.329,60.039,219.03,90.87,233.633,29.695,14.6,60.039-108.055,89.247-155.658,30.344-45.85,60.039-16.646,90.87-31.248,29.37-14.6,60.039-78.851,89.247-93.453,30.02-14.6,60.039,14.6,89.248,15.478,30.506-.876,60.039-30.08,90.87-15.478,29.533,14.6,60.039,78.851,89.248,140.18,30.182,61.329,60.039,125.577,90.87,124.7,29.208.876,58.417-63.373,89.248-62.5,29.858-.876,60.039,63.373,89.247,31.248,30.507-32.125,60.039-154.781,90.87-124.7,29.533,31.248,60.039,218.154,89.248,249.4,30.02,30.08,60.039-92.577,89.247-233.633C2007.1,156.83,2036.466-.872,2067.3,0c29.7-.876,60.04,156.826,89.248,186.906,30.344,31.248,60.039-62.2,90.87-62.2,29.37,0,60.039,93.453,74.644,140.179l14.6,46.727V685.423H0Z" transform="matrix(-0.966, 0.259, -0.259, -0.966, 2249.532, 3328.076)" fill="#3e3e3e"/>
          <path id="wave_3_2" data-name="wave (3)" d="M0,438.454l15.027-28.6c15.172-28.6,45.66-85.8,76-123.868,29.621-38.787,59.243-56.661,89.587-47.724,30.488,8.937,60.688,48.26,91.031,19.125,29.91-28.062,60.688-124.583,89.587-114.395,30.777,9.473,60.688,123.868,91.031,104.743,30.2-18.41,60.688-172.128,91.031-200.191,29.621-29.135,59.243,67.386,89.587,66.849,30.488.536,60.688-95.984,91.031-104.922C753.827.536,784.6,75.608,813.5,76.144,844.28,75.608,874.191.536,904.535,0c30.344.536,60.688,75.608,91.031,161.94,29.766,85.26,59.243,181.781,89.587,181.244,30.633.536,60.688-95.984,91.031-114.395,30.055-19.125,60.688,38.072,91.031,9.473,29.477-28.6,59.243-142.994,89.586-171.592s60.688,28.6,91.031,85.8c29.766,57.2,59.243,114.395,89.587,123.868,30.633,10.188,60.688-29.135,91.031-18.947,30.055,9.473,60.688,66.671,91.031,57.2,29.477-10.188,59.243-85.26,89.586-142.994,30.344-56.661,60.688-95.984,91.031-114.395,29.911-19.125,60.688-19.125,89.587,0,30.777,18.41,60.688,57.734,76.582,76.144l14.45,19.125V495.652H0Z" transform="matrix(0.966, -0.259, 0.259, 0.966, -121.373, 2779.361)" fill="#3e3e3e"/>
        </g>
      </g>
      <g id="Group_90" data-name="Group 90" transform="translate(0 -196.713)">
        <g id="Group_89" data-name="Group 89" transform="translate(481.492 2899.213)">
          <line id="Line_21" data-name="Line 21" x1="550.046" y2="584.116" transform="translate(77.969)" fill="none" stroke="#3e3e3e" stroke-linecap="round" stroke-width="5"/>
          <line id="Line_22" data-name="Line 22" x1="550.046" y2="584.116" transform="translate(26.563)" fill="none" stroke="#3e3e3e" stroke-linecap="round" stroke-width="5"/>
          <line id="Line_23" data-name="Line 23" x1="550.046" y2="584.116" transform="translate(129.563)" fill="none" stroke="#3e3e3e" stroke-linecap="round" stroke-width="5"/>
          <line id="Line_24" data-name="Line 24" x1="550.046" y2="584.116" transform="translate(180.969)" fill="none" stroke="#3e3e3e" stroke-linecap="round" stroke-width="5"/>
          <line id="Line_25" data-name="Line 25" x1="550.046" y2="584.116" transform="translate(53.121)" fill="none" stroke="#3e3e3e" stroke-linecap="round" stroke-width="5"/>
          <line id="Line_26" data-name="Line 26" x1="550.046" y2="584.116" fill="none" stroke="#3e3e3e" stroke-linecap="round" stroke-width="5"/>
          <line id="Line_27" data-name="Line 27" x1="550.046" y2="584.116" transform="translate(156.121)" fill="none" stroke="#3e3e3e" stroke-linecap="round" stroke-width="5"/>
          <line id="Line_28" data-name="Line 28" x1="550.046" y2="584.116" transform="translate(103)" fill="none" stroke="#3e3e3e" stroke-linecap="round" stroke-width="5"/>
        </g>
        <g id="Group_88" data-name="Group 88" transform="translate(275.492 2899.213)">
          <line id="Line_29" data-name="Line 29" x1="550.046" y2="584.116" transform="translate(77.969)" fill="none" stroke="#3e3e3e" stroke-linecap="round" stroke-width="5"/>
          <line id="Line_30" data-name="Line 30" x1="550.046" y2="584.116" transform="translate(26.563)" fill="none" stroke="#3e3e3e" stroke-linecap="round" stroke-width="5"/>
          <line id="Line_31" data-name="Line 31" x1="550.046" y2="584.116" transform="translate(129.563)" fill="none" stroke="#3e3e3e" stroke-linecap="round" stroke-width="5"/>
          <line id="Line_32" data-name="Line 32" x1="550.046" y2="584.116" transform="translate(180.969)" fill="none" stroke="#3e3e3e" stroke-linecap="round" stroke-width="5"/>
          <line id="Line_33" data-name="Line 33" x1="550.046" y2="584.116" transform="translate(53.121)" fill="none" stroke="#3e3e3e" stroke-linecap="round" stroke-width="5"/>
          <line id="Line_34" data-name="Line 34" x1="550.046" y2="584.116" fill="none" stroke="#3e3e3e" stroke-linecap="round" stroke-width="5"/>
          <line id="Line_35" data-name="Line 35" x1="550.046" y2="584.116" transform="translate(156.121)" fill="none" stroke="#3e3e3e" stroke-linecap="round" stroke-width="5"/>
          <line id="Line_36" data-name="Line 36" x1="550.046" y2="584.116" transform="translate(103)" fill="none" stroke="#3e3e3e" stroke-linecap="round" stroke-width="5"/>
        </g>
      </g>
      <g id="Group_91" data-name="Group 91" transform="translate(985.764 -150.368)">
        <g id="Group_89-2" data-name="Group 89" transform="translate(472.31 2899.213)">
          <line id="Line_21-2" data-name="Line 21" x1="525.53" y2="558.081" transform="translate(74.494)" fill="none" stroke="#3e3e3e" stroke-linecap="round" stroke-width="5"/>
          <line id="Line_22-2" data-name="Line 22" x1="525.53" y2="558.081" transform="translate(25.379)" fill="none" stroke="#3e3e3e" stroke-linecap="round" stroke-width="5"/>
          <line id="Line_23-2" data-name="Line 23" x1="525.53" y2="558.081" transform="translate(123.788)" fill="none" stroke="#3e3e3e" stroke-linecap="round" stroke-width="5"/>
          <line id="Line_24-2" data-name="Line 24" x1="525.53" y2="558.081" transform="translate(172.903)" fill="none" stroke="#3e3e3e" stroke-linecap="round" stroke-width="5"/>
          <line id="Line_25-2" data-name="Line 25" x1="525.53" y2="558.081" transform="translate(50.753)" fill="none" stroke="#3e3e3e" stroke-linecap="round" stroke-width="5"/>
          <line id="Line_26-2" data-name="Line 26" x1="525.53" y2="558.081" fill="none" stroke="#3e3e3e" stroke-linecap="round" stroke-width="5"/>
          <line id="Line_27-2" data-name="Line 27" x1="525.53" y2="558.081" transform="translate(149.163)" fill="none" stroke="#3e3e3e" stroke-linecap="round" stroke-width="5"/>
          <line id="Line_28-2" data-name="Line 28" x1="525.53" y2="558.081" transform="translate(98.409)" fill="none" stroke="#3e3e3e" stroke-linecap="round" stroke-width="5"/>
        </g>
        <g id="Group_88-2" data-name="Group 88" transform="translate(275.492 2899.213)">
          <line id="Line_29-2" data-name="Line 29" x1="525.53" y2="558.081" transform="translate(74.494)" fill="none" stroke="#3e3e3e" stroke-linecap="round" stroke-width="5"/>
          <line id="Line_30-2" data-name="Line 30" x1="525.53" y2="558.081" transform="translate(25.379)" fill="none" stroke="#3e3e3e" stroke-linecap="round" stroke-width="5"/>
          <line id="Line_31-2" data-name="Line 31" x1="525.53" y2="558.081" transform="translate(123.788)" fill="none" stroke="#3e3e3e" stroke-linecap="round" stroke-width="5"/>
          <line id="Line_32-2" data-name="Line 32" x1="525.53" y2="558.081" transform="translate(172.903)" fill="none" stroke="#3e3e3e" stroke-linecap="round" stroke-width="5"/>
          <line id="Line_33-2" data-name="Line 33" x1="525.53" y2="558.081" transform="translate(50.753)" fill="none" stroke="#3e3e3e" stroke-linecap="round" stroke-width="5"/>
          <line id="Line_34-2" data-name="Line 34" x1="525.53" y2="558.081" fill="none" stroke="#3e3e3e" stroke-linecap="round" stroke-width="5"/>
          <line id="Line_35-2" data-name="Line 35" x1="525.53" y2="558.081" transform="translate(149.163)" fill="none" stroke="#3e3e3e" stroke-linecap="round" stroke-width="5"/>
          <line id="Line_36-2" data-name="Line 36" x1="525.53" y2="558.081" transform="translate(98.409)" fill="none" stroke="#3e3e3e" stroke-linecap="round" stroke-width="5"/>
        </g>
      </g>
    </g>
  </g>
</svg>
