<svg xmlns="http://www.w3.org/2000/svg" xmlns:xlink="http://www.w3.org/1999/xlink" width="1920" height="374" viewBox="0 0 1920 374">
  <defs>
    <clipPath id="clip-path">
      <rect id="Rectangle_156" data-name="Rectangle 156" width="1920" height="374" transform="translate(-22252 1696.435)" fill="#fff" stroke="#707070" stroke-width="1"/>
    </clipPath>
  </defs>
  <g id="intersection-2-simple" transform="translate(22252 -1696.435)" clip-path="url(#clip-path)">
    <g id="intersection-1-simple" transform="translate(-22503.115 1708.925)">
      <g id="Group_141" data-name="Group 141" transform="translate(547.987 96.381)">
        <g id="Geometry" transform="translate(0 0)">
          <path id="Path_162" data-name="Path 162" d="M694.34,69.46" transform="translate(63.439 -61.663)" fill="none" stroke="#20a9af" stroke-linejoin="round" stroke-width="0.85"/>
          <path id="Path_163" data-name="Path 163" d="M694.34,69.46" transform="translate(63.439 -61.663)" fill="none" stroke="#20a9af" stroke-linejoin="round" stroke-width="0.85"/>
          <path id="Path_164" data-name="Path 164" d="M575.59,68.79" transform="translate(43.244 -61.864)" fill="none" stroke="#20a9af" stroke-linejoin="round" stroke-width="0.85"/>
          <path id="Path_165" data-name="Path 165" d="M1061.718,90.989,989.958,71.16,944.77,105.712Z" transform="translate(160.179 20.762)" fill="none" stroke="#20a9af" stroke-linejoin="round" stroke-width="0.85"/>
          <path id="Path_166" data-name="Path 166" d="M920.743,83.961l-31.03-2.131L855.43,110.314Z" transform="translate(144.985 23.957)" fill="none" stroke="#20a9af" stroke-linejoin="round" stroke-width="0.85"/>
          <path id="Path_167" data-name="Path 167" d="M812.5,47.87l50.231,72.613L897.014,92Z" transform="translate(137.685 13.788)" fill="none" stroke="#20a9af" stroke-linejoin="round" stroke-width="0.85"/>
          <path id="Path_168" data-name="Path 168" d="M865.871,120.483,815.64,47.87,793.76,94.13Z" transform="translate(134.498 13.788)" fill="none" stroke="#20a9af" stroke-linejoin="round" stroke-width="0.85"/>
          <path id="Path_169" data-name="Path 169" d="M755.43,79.862,800.279,94.13l21.88-46.26Z" transform="translate(127.979 13.788)" fill="none" stroke="#20a9af" stroke-linejoin="round" stroke-width="0.85"/>
          <path id="Path_170" data-name="Path 170" d="M800.238,86.758,755.39,72.49l.047,29.354Z" transform="translate(127.972 21.161)" fill="none" stroke="#20a9af" stroke-linejoin="round" stroke-width="0.85"/>
          <path id="Path_171" data-name="Path 171" d="M706.77,42.49l56.935,68.338-.047-29.354Z" transform="translate(119.704 12.177)" fill="none" stroke="#20a9af" stroke-linejoin="round" stroke-width="0.85"/>
          <path id="Path_172" data-name="Path 172" d="M768.854,110.828,711.919,42.49l-35.7,53.251Z" transform="translate(114.508 12.177)" fill="none" stroke="#20a9af" stroke-linejoin="round" stroke-width="0.85"/>
          <path id="Path_173" data-name="Path 173" d="M674.1,77.146l2.481,18.595,35.7-53.251Z" transform="translate(114.148 12.177)" fill="none" stroke="#20a9af" stroke-linejoin="round" stroke-width="0.85"/>
          <path id="Path_174" data-name="Path 174" d="M681.284,87.755,678.815,69.16,646.1,98.514Z" transform="translate(109.386 20.163)" fill="none" stroke="#20a9af" stroke-linejoin="round" stroke-width="0.85"/>
          <path id="Path_175" data-name="Path 175" d="M582.1,64.49l74.884,35.423L689.7,70.558Z" transform="translate(98.502 18.765)" fill="none" stroke="#20a9af" stroke-linejoin="round" stroke-width="0.85"/>
          <path id="Path_176" data-name="Path 176" d="M660.92,99.913,586.036,64.49,558.68,70.454Z" transform="translate(94.519 18.765)" fill="none" stroke="#20a9af" stroke-linejoin="round" stroke-width="0.85"/>
          <path id="Path_177" data-name="Path 177" d="M529.31,27.16l34.365,54.472,27.356-5.964Z" transform="translate(89.524 7.587)" fill="none" stroke="#20a9af" stroke-linejoin="round" stroke-width="0.85"/>
          <path id="Path_178" data-name="Path 178" d="M1038.1,109.789l7.8-23.3,15.714,41.569Z" transform="translate(176.05 25.353)" fill="none" stroke="#20a9af" stroke-linejoin="round" stroke-width="0.85"/>
          <path id="Path_179" data-name="Path 179" d="M1061.718,86.49l-7.793,23.3L944.77,101.226Z" transform="translate(160.179 25.353)" fill="none" stroke="#20a9af" stroke-linejoin="round" stroke-width="0.85"/>
          <path id="Path_180" data-name="Path 180" d="M939.43,156.63l6.248-58.8,109.155,8.563Z" transform="translate(159.271 28.748)" fill="none" stroke="#20a9af" stroke-linejoin="round" stroke-width="0.85"/>
          <path id="Path_181" data-name="Path 181" d="M950.4,102.106l-6.236,58.8L911.3,83.55Z" transform="translate(154.487 24.472)" fill="none" stroke="#20a9af" stroke-linejoin="round" stroke-width="0.85"/>
          <path id="Path_182" data-name="Path 182" d="M881.93,128.939,916.295,83.55l32.867,77.356Z" transform="translate(149.492 24.472)" fill="none" stroke="#20a9af" stroke-linejoin="round" stroke-width="0.85"/>
          <path id="Path_183" data-name="Path 183" d="M920.743,83.55,886.39,128.939,855.43,109.9Z" transform="translate(144.985 24.472)" fill="none" stroke="#20a9af" stroke-linejoin="round" stroke-width="0.85"/>
          <path id="Path_184" data-name="Path 184" d="M802.77,103.75l61.615.1,30.96,19.037Z" transform="translate(136.03 30.521)" fill="none" stroke="#20a9af" stroke-linejoin="round" stroke-width="0.85"/>
          <path id="Path_185" data-name="Path 185" d="M865.871,109.9l-61.616-.1L793.76,83.55Z" transform="translate(134.498 24.472)" fill="none" stroke="#20a9af" stroke-linejoin="round" stroke-width="0.85"/>
          <path id="Path_186" data-name="Path 186" d="M764.39,128.939,798.755,83.55l10.5,26.249Z" transform="translate(129.503 24.472)" fill="none" stroke="#20a9af" stroke-linejoin="round" stroke-width="0.85"/>
          <path id="Path_187" data-name="Path 187" d="M800.232,83.55l-34.365,45.389-10.437-30.3Z" transform="translate(127.979 24.472)" fill="none" stroke="#20a9af" stroke-linejoin="round" stroke-width="0.85"/>
          <path id="Path_188" data-name="Path 188" d="M706.1,153.96l57.719-58.8,10.437,30.3Z" transform="translate(119.59 27.949)" fill="none" stroke="#20a9af" stroke-linejoin="round" stroke-width="0.85"/>
          <path id="Path_189" data-name="Path 189" d="M768.854,98.636l-57.719,58.8L676.22,83.55Z" transform="translate(114.508 24.472)" fill="none" stroke="#20a9af" stroke-linejoin="round" stroke-width="0.85"/>
          <path id="Path_190" data-name="Path 190" d="M646.1,150.51l35.242-66.96,34.915,73.886Z" transform="translate(109.386 24.472)" fill="none" stroke="#20a9af" stroke-linejoin="round" stroke-width="0.85"/>
          <path id="Path_191" data-name="Path 191" d="M681.291,83.55,646.06,150.51l.047-56.2Z" transform="translate(109.379 24.472)" fill="none" stroke="#20a9af" stroke-linejoin="round" stroke-width="0.85"/>
          <path id="Path_192" data-name="Path 192" d="M594.1,96.053l60.843-4.223-.047,56.2Z" transform="translate(100.543 26.952)" fill="none" stroke="#20a9af" stroke-linejoin="round" stroke-width="0.85"/>
          <path id="Path_193" data-name="Path 193" d="M660.92,98.618l-60.843,4.223L558.68,69.16Z" transform="translate(94.519 20.163)" fill="none" stroke="#20a9af" stroke-linejoin="round" stroke-width="0.85"/>
          <path id="Path_194" data-name="Path 194" d="M529.31,133.248,563.675,69.16l41.4,33.681Z" transform="translate(89.524 20.163)" fill="none" stroke="#20a9af" stroke-linejoin="round" stroke-width="0.85"/>
          <path id="Path_195" data-name="Path 195" d="M1097.558,163.949l-34.365-45.389-34.353,69.117Z" transform="translate(174.476 34.956)" fill="none" stroke="#20a9af" stroke-linejoin="round" stroke-width="0.85"/>
          <path id="Path_196" data-name="Path 196" d="M1039.675,104.49l-10.835,87.4,34.353-69.117Z" transform="translate(174.476 30.743)" fill="none" stroke="#20a9af" stroke-linejoin="round" stroke-width="0.85"/>
          <path id="Path_197" data-name="Path 197" d="M1031.64,191.89l10.835-87.4L1012.1,158.1Z" transform="translate(171.629 30.743)" fill="none" stroke="#20a9af" stroke-linejoin="round" stroke-width="0.85"/>
          <path id="Path_198" data-name="Path 198" d="M939.43,154.739l85.028,3.366,30.375-53.615Z" transform="translate(159.271 30.743)" fill="none" stroke="#20a9af" stroke-linejoin="round" stroke-width="0.85"/>
          <path id="Path_199" data-name="Path 199" d="M1033.367,146.526l-85.028-3.366L886.77,171.644Z" transform="translate(150.315 42.322)" fill="none" stroke="#20a9af" stroke-linejoin="round" stroke-width="0.85"/>
          <path id="Path_200" data-name="Path 200" d="M881.93,118.56l5.663,60.45,61.569-28.484Z" transform="translate(149.492 34.956)" fill="none" stroke="#20a9af" stroke-linejoin="round" stroke-width="0.85"/>
          <path id="Path_201" data-name="Path 201" d="M895.443,179.01l-5.652-60.45L835.43,167.744Z" transform="translate(141.584 34.956)" fill="none" stroke="#20a9af" stroke-linejoin="round" stroke-width="0.85"/>
          <path id="Path_202" data-name="Path 202" d="M802.77,103.83l38.214,68.325,54.361-49.184Z" transform="translate(136.03 30.545)" fill="none" stroke="#20a9af" stroke-linejoin="round" stroke-width="0.85"/>
          <path id="Path_203" data-name="Path 203" d="M840.944,172.155,802.73,103.83l8.623,44.935Z" transform="translate(136.023 30.545)" fill="none" stroke="#20a9af" stroke-linejoin="round" stroke-width="0.85"/>
          <path id="Path_204" data-name="Path 204" d="M764.39,122.971l53.483,25.794L809.25,103.83Z" transform="translate(129.503 30.545)" fill="none" stroke="#20a9af" stroke-linejoin="round" stroke-width="0.85"/>
          <path id="Path_205" data-name="Path 205" d="M822.3,144.354,768.814,118.56,738.1,181.609Z" transform="translate(125.032 34.956)" fill="none" stroke="#20a9af" stroke-linejoin="round" stroke-width="0.85"/>
          <path id="Path_206" data-name="Path 206" d="M706.1,147.057l37.442,34.552,30.714-63.049Z" transform="translate(119.59 34.956)" fill="none" stroke="#20a9af" stroke-linejoin="round" stroke-width="0.85"/>
          <path id="Path_207" data-name="Path 207" d="M745.65,175.042,708.208,140.49,693.43,155.979Z" transform="translate(117.435 41.522)" fill="none" stroke="#20a9af" stroke-linejoin="round" stroke-width="0.85"/>
          <path id="Path_208" data-name="Path 208" d="M646.1,135.16l55.379,22.415,14.778-15.489Z" transform="translate(109.386 39.926)" fill="none" stroke="#20a9af" stroke-linejoin="round" stroke-width="0.85"/>
          <path id="Path_209" data-name="Path 209" d="M706.192,157.575,650.813,135.16l-32.7,44.61Z" transform="translate(104.626 39.926)" fill="none" stroke="#20a9af" stroke-linejoin="round" stroke-width="0.85"/>
          <path id="Path_210" data-name="Path 210" d="M594.1,95.16l28.1,96.587,32.692-44.61Z" transform="translate(100.543 27.949)" fill="none" stroke="#20a9af" stroke-linejoin="round" stroke-width="0.85"/>
          <path id="Path_211" data-name="Path 211" d="M628.17,191.747,600.077,95.16l-41.4,75.8Z" transform="translate(94.519 27.949)" fill="none" stroke="#20a9af" stroke-linejoin="round" stroke-width="0.85"/>
          <path id="Path_212" data-name="Path 212" d="M529.31,125.567l34.365,45.389,41.4-75.8Z" transform="translate(89.524 27.949)" fill="none" stroke="#20a9af" stroke-linejoin="round" stroke-width="0.85"/>
          <path id="Path_213" data-name="Path 213" d="M1097.558,153.56l-34.365,45.389L1028.84,177.3Z" transform="translate(174.476 45.436)" fill="none" stroke="#20a9af" stroke-linejoin="round" stroke-width="0.85"/>
          <path id="Path_214" data-name="Path 214" d="M999.48,193.479l34.353-21.649,34.353,21.649Z" transform="translate(169.483 50.907)" fill="none" stroke="#20a9af" stroke-linejoin="round" stroke-width="0.85"/>
          <path id="Path_215" data-name="Path 215" d="M1033.795,179.615,999.43,201.264l14.825-55.434Z" transform="translate(169.474 43.122)" fill="none" stroke="#20a9af" stroke-linejoin="round" stroke-width="0.85"/>
          <path id="Path_216" data-name="Path 216" d="M940.71,201.264l83.531-55.434-14.825,55.434Z" transform="translate(159.488 43.122)" fill="none" stroke="#20a9af" stroke-linejoin="round" stroke-width="0.85"/>
          <path id="Path_217" data-name="Path 217" d="M1033.367,145.83l-83.542,55.434L886.77,170.948Z" transform="translate(150.315 43.122)" fill="none" stroke="#20a9af" stroke-linejoin="round" stroke-width="0.85"/>
          <path id="Path_218" data-name="Path 218" d="M881.93,195.476l5.663-30.316,63.055,30.316Z" transform="translate(149.492 48.91)" fill="none" stroke="#20a9af" stroke-linejoin="round" stroke-width="0.85"/>
          <path id="Path_219" data-name="Path 219" d="M895.443,167.756l-5.652,30.316L835.43,156.49Z" transform="translate(141.584 46.314)" fill="none" stroke="#20a9af" stroke-linejoin="round" stroke-width="0.85"/>
          <path id="Path_220" data-name="Path 220" d="M823.16,198.072l14.357-41.582,54.361,41.582Z" transform="translate(139.497 46.314)" fill="none" stroke="#20a9af" stroke-linejoin="round" stroke-width="0.85"/>
          <path id="Path_221" data-name="Path 221" d="M839.691,161.88l-14.357,41.582L810.1,138.49Z" transform="translate(137.276 40.924)" fill="none" stroke="#20a9af" stroke-linejoin="round" stroke-width="0.85"/>
          <path id="Path_222" data-name="Path 222" d="M764.39,203.462l53.483-64.972,15.234,64.972Z" transform="translate(129.503 40.924)" fill="none" stroke="#20a9af" stroke-linejoin="round" stroke-width="0.85"/>
          <path id="Path_223" data-name="Path 223" d="M822.3,138.49l-53.484,64.972L738.1,175.745Z" transform="translate(125.032 40.924)" fill="none" stroke="#20a9af" stroke-linejoin="round" stroke-width="0.85"/>
          <path id="Path_224" data-name="Path 224" d="M705.63,194.877l37.992-27.717,30.714,27.717Z" transform="translate(119.51 49.509)" fill="none" stroke="#20a9af" stroke-linejoin="round" stroke-width="0.85"/>
          <path id="Path_225" data-name="Path 225" d="M745.65,171.553l-38,27.717L693.43,152.49Z" transform="translate(117.435 45.116)" fill="none" stroke="#20a9af" stroke-linejoin="round" stroke-width="0.85"/>
          <path id="Path_226" data-name="Path 226" d="M646.85,199.27l54.5-46.78,14.216,46.78Z" transform="translate(109.514 45.116)" fill="none" stroke="#20a9af" stroke-linejoin="round" stroke-width="0.85"/>
          <path id="Path_227" data-name="Path 227" d="M706.192,152.49l-54.5,46.78-33.581-24.6Z" transform="translate(104.626 45.116)" fill="none" stroke="#20a9af" stroke-linejoin="round" stroke-width="0.85"/>
          <path id="Path_228" data-name="Path 228" d="M588.09,194.158l35.137-24.6,33.569,24.6Z" transform="translate(99.521 50.227)" fill="none" stroke="#20a9af" stroke-linejoin="round" stroke-width="0.85"/>
          <path id="Path_229" data-name="Path 229" d="M628.17,174.351l-35.137,24.6L558.68,153.56Z" transform="translate(94.519 45.436)" fill="none" stroke="#20a9af" stroke-linejoin="round" stroke-width="0.85"/>
          <path id="Path_230" data-name="Path 230" d="M529.31,198.949l34.365-45.389,34.353,45.389Z" transform="translate(89.524 45.436)" fill="none" stroke="#20a9af" stroke-linejoin="round" stroke-width="0.85"/>
          <path id="Path_231" data-name="Path 231" d="M575.59,68.79" transform="translate(43.244 -61.864)" fill="none" stroke="#20a9af" stroke-linejoin="round" stroke-width="0.85"/>
          <line id="Line_99" data-name="Line 99" x1="69.478" y1="16.932" transform="translate(515.003 0)" fill="none" stroke="#20a9af" stroke-linejoin="round" stroke-width="0.85"/>
          <path id="Path_232" data-name="Path 232" d="M360.128,45.979,327.109,30.49,303.24,84.975Z" transform="translate(51.078 8.584)" fill="none" stroke="#20a9af" stroke-linejoin="round" stroke-width="0.85"/>
          <path id="Path_233" data-name="Path 233" d="M323.68,30.49,356.7,45.979l49.88-6.822Z" transform="translate(54.555 8.584)" fill="none" stroke="#20a9af" stroke-linejoin="round" stroke-width="0.85"/>
          <path id="Path_234" data-name="Path 234" d="M390.079,78.638l11.7-41.478L351.9,43.982Z" transform="translate(59.354 10.581)" fill="none" stroke="#20a9af" stroke-linejoin="round" stroke-width="0.85"/>
          <path id="Path_235" data-name="Path 235" d="M396.271,48.14l-11.7,41.478L450.047.49Z" transform="translate(64.91 -0.399)" fill="none" stroke="#20a9af" stroke-linejoin="round" stroke-width="0.85"/>
          <path id="Path_236" data-name="Path 236" d="M492.169,83.563,450.047.49,384.57,89.619Z" transform="translate(64.91 -0.399)" fill="none" stroke="#20a9af" stroke-linejoin="round" stroke-width="0.85"/>
          <path id="Path_237" data-name="Path 237" d="M440.57.49l42.122,83.073,27.356-66.128Z" transform="translate(74.433 -0.399)" fill="none" stroke="#20a9af" stroke-linejoin="round" stroke-width="0.85"/>
          <path id="Path_238" data-name="Path 238" d="M538.279,31.137,503.926,13.53,476.57,79.658Z" transform="translate(80.555 3.506)" fill="none" stroke="#20a9af" stroke-linejoin="round" stroke-width="0.85"/>
          <path id="Path_239" data-name="Path 239" d="M147.37,83.961l31.042-2.131,34.271,28.484Z" transform="translate(24.571 23.957)" fill="none" stroke="#20a9af" stroke-linejoin="round" stroke-width="0.85"/>
          <path id="Path_240" data-name="Path 240" d="M258.414,47.87l-50.242,72.613L173.9,92Z" transform="translate(29.082 13.788)" fill="none" stroke="#20a9af" stroke-linejoin="round" stroke-width="0.85"/>
          <path id="Path_241" data-name="Path 241" d="M203.24,120.483,253.471,47.87l21.88,46.26Z" transform="translate(34.072 13.788)" fill="none" stroke="#20a9af" stroke-linejoin="round" stroke-width="0.85"/>
          <path id="Path_242" data-name="Path 242" d="M312.887,79.862,268.05,94.13,246.17,47.87Z" transform="translate(41.373 13.788)" fill="none" stroke="#20a9af" stroke-linejoin="round" stroke-width="0.85"/>
          <path id="Path_243" data-name="Path 243" d="M264.91,86.758,309.759,72.49l-.047,29.354Z" transform="translate(44.56 21.161)" fill="none" stroke="#20a9af" stroke-linejoin="round" stroke-width="0.85"/>
          <path id="Path_244" data-name="Path 244" d="M360.137,42.49,303.19,110.828l.059-29.354Z" transform="translate(51.07 12.177)" fill="none" stroke="#20a9af" stroke-linejoin="round" stroke-width="0.85"/>
          <path id="Path_245" data-name="Path 245" d="M303.24,110.828,360.175,42.49l35.7,53.251Z" transform="translate(51.078 12.177)" fill="none" stroke="#20a9af" stroke-linejoin="round" stroke-width="0.85"/>
          <path id="Path_246" data-name="Path 246" d="M390.079,77.146,387.6,95.741,351.9,42.49Z" transform="translate(59.354 12.177)" fill="none" stroke="#20a9af" stroke-linejoin="round" stroke-width="0.85"/>
          <path id="Path_247" data-name="Path 247" d="M382.45,87.755l2.48-18.595,32.715,29.354Z" transform="translate(64.549 20.163)" fill="none" stroke="#20a9af" stroke-linejoin="round" stroke-width="0.85"/>
          <path id="Path_248" data-name="Path 248" d="M492.169,64.49,417.285,99.913,384.57,70.558Z" transform="translate(64.91 18.765)" fill="none" stroke="#20a9af" stroke-linejoin="round" stroke-width="0.85"/>
          <path id="Path_249" data-name="Path 249" d="M412.57,99.913,487.454,64.49l27.356,5.964Z" transform="translate(69.671 18.765)" fill="none" stroke="#20a9af" stroke-linejoin="round" stroke-width="0.85"/>
          <path id="Path_250" data-name="Path 250" d="M538.279,27.16,503.926,81.632,476.57,75.668Z" transform="translate(80.555 7.587)" fill="none" stroke="#20a9af" stroke-linejoin="round" stroke-width="0.85"/>
          <path id="Path_251" data-name="Path 251" d="M186.46,128.939,152.107,83.55,119.24,160.906Z" transform="translate(19.787 24.472)" fill="none" stroke="#20a9af" stroke-linejoin="round" stroke-width="0.85"/>
          <path id="Path_252" data-name="Path 252" d="M147.37,83.55l34.365,45.389L212.683,109.9Z" transform="translate(24.571 24.472)" fill="none" stroke="#20a9af" stroke-linejoin="round" stroke-width="0.85"/>
          <path id="Path_253" data-name="Path 253" d="M269.315,103.75l-61.627.1L176.74,122.891Z" transform="translate(29.565 30.521)" fill="none" stroke="#20a9af" stroke-linejoin="round" stroke-width="0.85"/>
          <path id="Path_254" data-name="Path 254" d="M203.24,109.9l61.615-.1,10.5-26.249Z" transform="translate(34.072 24.472)" fill="none" stroke="#20a9af" stroke-linejoin="round" stroke-width="0.85"/>
          <path id="Path_255" data-name="Path 255" d="M300.749,128.939,266.4,83.55,255.9,109.8Z" transform="translate(43.028 24.472)" fill="none" stroke="#20a9af" stroke-linejoin="round" stroke-width="0.85"/>
          <path id="Path_256" data-name="Path 256" d="M264.91,83.55l34.365,45.389,10.437-30.3Z" transform="translate(44.56 24.472)" fill="none" stroke="#20a9af" stroke-linejoin="round" stroke-width="0.85"/>
          <path id="Path_257" data-name="Path 257" d="M362.436,153.96l-57.731-58.8-10.425,30.3Z" transform="translate(49.555 27.949)" fill="none" stroke="#20a9af" stroke-linejoin="round" stroke-width="0.85"/>
          <path id="Path_258" data-name="Path 258" d="M303.24,98.636l57.719,58.8L395.874,83.55Z" transform="translate(51.078 24.472)" fill="none" stroke="#20a9af" stroke-linejoin="round" stroke-width="0.85"/>
          <path id="Path_259" data-name="Path 259" d="M422.727,150.51,387.485,83.55,352.57,157.436Z" transform="translate(59.468 24.472)" fill="none" stroke="#20a9af" stroke-linejoin="round" stroke-width="0.85"/>
          <path id="Path_260" data-name="Path 260" d="M382.45,83.55l35.242,66.96-.047-56.2Z" transform="translate(64.549 24.472)" fill="none" stroke="#20a9af" stroke-linejoin="round" stroke-width="0.85"/>
          <path id="Path_261" data-name="Path 261" d="M473.373,96.053,412.53,91.83l.047,56.2Z" transform="translate(69.665 26.952)" fill="none" stroke="#20a9af" stroke-linejoin="round" stroke-width="0.85"/>
          <path id="Path_262" data-name="Path 262" d="M412.57,98.618l60.843,4.223,41.4-33.681Z" transform="translate(69.671 20.163)" fill="none" stroke="#20a9af" stroke-linejoin="round" stroke-width="0.85"/>
          <path id="Path_263" data-name="Path 263" d="M540.32,133.248,505.967,69.16l-41.4,33.681Z" transform="translate(78.515 20.163)" fill="none" stroke="#20a9af" stroke-linejoin="round" stroke-width="0.85"/>
          <path id="Path_264" data-name="Path 264" d="M46.57,146.526,131.6,143.16l61.569,28.484Z" transform="translate(7.428 42.322)" fill="none" stroke="#20a9af" stroke-linejoin="round" stroke-width="0.85"/>
          <path id="Path_265" data-name="Path 265" d="M186.46,118.56l-5.651,60.45L119.24,150.526Z" transform="translate(19.787 34.956)" fill="none" stroke="#20a9af" stroke-linejoin="round" stroke-width="0.85"/>
          <path id="Path_266" data-name="Path 266" d="M171.91,179.01l5.651-60.45,54.349,49.184Z" transform="translate(28.744 34.956)" fill="none" stroke="#20a9af" stroke-linejoin="round" stroke-width="0.85"/>
          <path id="Path_267" data-name="Path 267" d="M269.315,103.83l-38.226,68.325L176.74,122.971Z" transform="translate(29.565 30.545)" fill="none" stroke="#20a9af" stroke-linejoin="round" stroke-width="0.85"/>
          <path id="Path_268" data-name="Path 268" d="M223.24,172.155l38.214-68.325-8.623,44.935Z" transform="translate(37.473 30.545)" fill="none" stroke="#20a9af" stroke-linejoin="round" stroke-width="0.85"/>
          <path id="Path_269" data-name="Path 269" d="M302,122.971,248.53,148.765l8.623-44.935Z" transform="translate(41.774 30.545)" fill="none" stroke="#20a9af" stroke-linejoin="round" stroke-width="0.85"/>
          <path id="Path_270" data-name="Path 270" d="M248.57,144.354l53.484-25.794,30.714,63.049Z" transform="translate(41.781 34.956)" fill="none" stroke="#20a9af" stroke-linejoin="round" stroke-width="0.85"/>
          <path id="Path_271" data-name="Path 271" d="M362.436,147.057l-37.442,34.552L294.28,118.56Z" transform="translate(49.555 34.956)" fill="none" stroke="#20a9af" stroke-linejoin="round" stroke-width="0.85"/>
          <path id="Path_272" data-name="Path 272" d="M320.57,175.042l37.442-34.552,14.778,15.489Z" transform="translate(54.026 41.522)" fill="none" stroke="#20a9af" stroke-linejoin="round" stroke-width="0.85"/>
          <path id="Path_273" data-name="Path 273" d="M422.727,135.16l-55.391,22.415L352.57,142.086Z" transform="translate(59.468 39.926)" fill="none" stroke="#20a9af" stroke-linejoin="round" stroke-width="0.85"/>
          <path id="Path_274" data-name="Path 274" d="M365.24,157.575l55.379-22.415,32.692,44.61Z" transform="translate(61.622 39.926)" fill="none" stroke="#20a9af" stroke-linejoin="round" stroke-width="0.85"/>
          <path id="Path_275" data-name="Path 275" d="M473.366,95.16l-28.1,96.587-32.692-44.61Z" transform="translate(69.671 27.949)" fill="none" stroke="#20a9af" stroke-linejoin="round" stroke-width="0.85"/>
          <path id="Path_276" data-name="Path 276" d="M440.56,191.747,468.653,95.16l41.4,75.8Z" transform="translate(74.431 27.949)" fill="none" stroke="#20a9af" stroke-linejoin="round" stroke-width="0.85"/>
          <path id="Path_277" data-name="Path 277" d="M540.32,125.567l-34.353,45.389-41.4-75.8Z" transform="translate(78.515 27.949)" fill="none" stroke="#20a9af" stroke-linejoin="round" stroke-width="0.85"/>
          <path id="Path_278" data-name="Path 278" d="M69.138,193.479,34.785,171.83.42,193.479Z" transform="translate(-0.42 50.907)" fill="none" stroke="#20a9af" stroke-linejoin="round" stroke-width="0.85"/>
          <path id="Path_279" data-name="Path 279" d="M29.83,179.615l34.365,21.649L49.37,145.83Z" transform="translate(4.582 43.122)" fill="none" stroke="#20a9af" stroke-linejoin="round" stroke-width="0.85"/>
          <path id="Path_280" data-name="Path 280" d="M130.061,201.264,46.53,145.83l14.825,55.434Z" transform="translate(7.422 43.122)" fill="none" stroke="#20a9af" stroke-linejoin="round" stroke-width="0.85"/>
          <path id="Path_281" data-name="Path 281" d="M46.57,145.83l83.542,55.434,63.055-30.316Z" transform="translate(7.428 43.122)" fill="none" stroke="#20a9af" stroke-linejoin="round" stroke-width="0.85"/>
          <path id="Path_282" data-name="Path 282" d="M186.676,195.476l-5.651-30.316L117.97,195.476Z" transform="translate(19.571 48.91)" fill="none" stroke="#20a9af" stroke-linejoin="round" stroke-width="0.85"/>
          <path id="Path_283" data-name="Path 283" d="M171.91,167.756l5.651,30.316,54.349-41.582Z" transform="translate(28.744 46.314)" fill="none" stroke="#20a9af" stroke-linejoin="round" stroke-width="0.85"/>
          <path id="Path_284" data-name="Path 284" d="M245.446,198.072,231.089,156.49,176.74,198.072Z" transform="translate(29.565 46.314)" fill="none" stroke="#20a9af" stroke-linejoin="round" stroke-width="0.85"/>
          <path id="Path_285" data-name="Path 285" d="M223.24,161.88,237.6,203.462l15.234-64.972Z" transform="translate(37.473 40.924)" fill="none" stroke="#20a9af" stroke-linejoin="round" stroke-width="0.85"/>
          <path id="Path_286" data-name="Path 286" d="M304.216,203.462,250.744,138.49,235.51,203.462Z" transform="translate(39.56 40.924)" fill="none" stroke="#20a9af" stroke-linejoin="round" stroke-width="0.85"/>
          <path id="Path_287" data-name="Path 287" d="M248.57,138.49l53.484,64.972,30.714-27.717Z" transform="translate(41.781 40.924)" fill="none" stroke="#20a9af" stroke-linejoin="round" stroke-width="0.85"/>
          <path id="Path_288" data-name="Path 288" d="M362.986,194.877,324.994,167.16,294.28,194.877Z" transform="translate(49.555 49.509)" fill="none" stroke="#20a9af" stroke-linejoin="round" stroke-width="0.85"/>
          <path id="Path_289" data-name="Path 289" d="M320.57,171.553l38,27.717,14.216-46.78Z" transform="translate(54.026 45.116)" fill="none" stroke="#20a9af" stroke-linejoin="round" stroke-width="0.85"/>
          <path id="Path_290" data-name="Path 290" d="M421.756,199.27l-54.5-46.78-14.2,46.78Z" transform="translate(59.549 45.116)" fill="none" stroke="#20a9af" stroke-linejoin="round" stroke-width="0.85"/>
          <path id="Path_291" data-name="Path 291" d="M365.24,152.49l54.5,46.78,33.569-24.6Z" transform="translate(61.622 45.116)" fill="none" stroke="#20a9af" stroke-linejoin="round" stroke-width="0.85"/>
          <path id="Path_292" data-name="Path 292" d="M480.526,194.158l-35.137-24.6-33.569,24.6Z" transform="translate(69.544 50.227)" fill="none" stroke="#20a9af" stroke-linejoin="round" stroke-width="0.85"/>
          <path id="Path_293" data-name="Path 293" d="M440.56,174.351l35.137,24.6L510.05,153.56Z" transform="translate(74.431 45.436)" fill="none" stroke="#20a9af" stroke-linejoin="round" stroke-width="0.85"/>
          <path id="Path_294" data-name="Path 294" d="M539.3,198.949,504.943,153.56,470.59,198.949Z" transform="translate(79.538 45.436)" fill="none" stroke="#20a9af" stroke-linejoin="round" stroke-width="0.85"/>
          <line id="Line_100" data-name="Line 100" x2="50.137" y2="23.481" transform="translate(1221.896 111.752)" fill="none" stroke="#20a9af" stroke-linejoin="round" stroke-width="0.85"/>
          <line id="Line_101" data-name="Line 101" y1="18.179" x2="34.365" transform="translate(1237.669 135.233)" fill="none" stroke="#20a9af" stroke-linejoin="round" stroke-width="0.85"/>
          <line id="Line_102" data-name="Line 102" y1="63.673" transform="translate(1272.034 135.233)" fill="none" stroke="#20a9af" stroke-linejoin="round" stroke-width="0.85"/>
          <line id="Line_103" data-name="Line 103" x1="67.302" y1="63.673" transform="translate(1272.034 135.233)" fill="none" stroke="#20a9af" stroke-linejoin="round" stroke-width="0.85"/>
          <line id="Line_104" data-name="Line 104" x2="67.302" transform="translate(1272.034 198.905)" fill="none" stroke="#20a9af" stroke-linejoin="round" stroke-width="0.85"/>
          <line id="Line_105" data-name="Line 105" x2="93.172" transform="translate(1237.669 244.386)" fill="none" stroke="#20a9af" stroke-linejoin="round" stroke-width="0.85"/>
          <line id="Line_106" data-name="Line 106" x2="58.807" y2="45.48" transform="translate(1272.034 198.905)" fill="none" stroke="#20a9af" stroke-linejoin="round" stroke-width="0.85"/>
          <line id="Line_107" data-name="Line 107" x1="8.495" y2="45.48" transform="translate(1330.841 198.905)" fill="none" stroke="#20a9af" stroke-linejoin="round" stroke-width="0.85"/>
          <line id="Line_108" data-name="Line 108" x1="59.509" transform="translate(1330.841 244.386)" fill="none" stroke="#20a9af" stroke-linejoin="round" stroke-width="0.85"/>
          <line id="Line_109" data-name="Line 109" x2="51.015" y2="45.48" transform="translate(1339.336 198.905)" fill="none" stroke="#20a9af" stroke-linejoin="round" stroke-width="0.85"/>
        </g>
      </g>
      <path id="Path_295" data-name="Path 295" d="M317.505,0,476.874,2265.02H317.645Z" transform="translate(0 679.011) rotate(-90)" fill="#3e3e3e"/>
    </g>
  </g>
</svg>
